<svg width="1040" height="576" viewBox="0 0 1040 576" fill="none" xmlns="http://www.w3.org/2000/svg">
<path d="M128 206.974H147.341V373.632H249.795V390.396H128V206.974Z" fill="#26D7A0"/>
<path d="M375.251 265.011C384.828 274.011 389.621 287.327 389.621 304.97V390.397H371.845V368.915C367.661 376.079 361.525 381.664 353.414 385.68C345.313 389.696 335.681 391.709 324.53 391.709C309.194 391.709 296.999 388.038 287.933 380.707C278.868 373.365 274.34 363.675 274.34 351.627C274.34 339.924 278.568 330.49 287.012 323.326C295.457 316.162 308.928 312.58 327.392 312.58H371.046V304.192C371.046 292.311 367.739 283.277 361.115 277.07C354.49 270.873 344.825 267.77 332.097 267.77C323.387 267.77 315.02 269.216 307.008 272.097C298.997 274.978 292.106 278.961 286.358 284.023L277.991 270.139C284.96 264.199 293.326 259.615 303.08 256.378C312.834 253.152 323.12 251.528 333.917 251.528C351.904 251.517 365.664 256.022 375.251 265.011ZM354.346 369.827C361.836 365.021 367.417 358.08 371.068 349.002V326.463H327.947C304.423 326.463 292.66 334.673 292.66 351.093C292.66 359.125 295.712 365.466 301.804 370.094C307.896 374.722 316.44 377.036 327.415 377.036C337.879 377.036 346.844 374.633 354.346 369.827Z" fill="#26D7A0"/>
<path d="M452.228 386.859C442.03 383.633 434.063 379.572 428.315 374.677L436.681 360.004C442.429 364.543 449.664 368.259 458.375 371.14C467.086 374.021 476.152 375.467 485.561 375.467C498.111 375.467 507.388 373.498 513.391 369.571C519.406 365.644 522.413 360.093 522.413 352.929C522.413 347.867 520.759 343.884 517.441 341.003C514.135 338.122 509.951 335.941 504.891 334.451C499.831 332.971 493.129 331.525 484.762 330.123C473.61 328.032 464.633 325.885 457.842 323.704C451.051 321.524 445.248 317.808 440.465 312.569C435.672 307.329 433.275 300.076 433.275 290.82C433.275 279.295 438.068 269.861 447.645 262.519C457.221 255.177 470.559 251.517 487.636 251.517C496.525 251.517 505.413 252.696 514.301 255.054C523.189 257.413 530.502 260.516 536.25 264.354L528.15 279.295C516.82 271.43 503.316 267.503 487.636 267.503C475.785 267.503 466.853 269.594 460.85 273.788C454.835 277.982 451.828 283.489 451.828 290.297C451.828 295.537 453.526 299.731 456.921 302.879C460.317 306.027 464.545 308.341 469.594 309.821C474.642 311.312 481.611 312.836 490.499 314.404C501.474 316.496 510.273 318.598 516.898 320.69C523.522 322.781 529.182 326.363 533.886 331.436C538.591 336.509 540.944 343.495 540.944 352.395C540.944 364.443 535.928 374.01 525.919 381.085C515.899 388.161 502.006 391.698 484.23 391.698C473.089 391.709 462.414 390.096 452.228 386.859Z" fill="#26D7A0"/>
<path d="M654.916 382.009C651.431 385.157 647.115 387.56 641.977 389.217C636.839 390.875 631.48 391.709 625.898 391.709C613.004 391.709 603.073 388.216 596.104 381.23C589.136 374.244 585.651 364.376 585.651 351.616V268.293H561.084V252.574H585.651V222.437H604.205V252.574H646.027V268.293H604.205V350.57C604.205 358.78 606.246 365.032 610.352 369.304C614.447 373.587 620.328 375.723 627.996 375.723C631.824 375.723 635.53 375.111 639.103 373.888C642.676 372.664 645.772 370.917 648.38 368.648L654.916 382.009Z" fill="#26D7A0"/>
<path fill-rule="evenodd" clip-rule="evenodd" d="M911.241 303.689L895.316 302.139C895.768 297.492 896 292.775 896 288C896 283.225 895.768 278.508 895.316 273.861L911.241 272.311C911.743 277.473 912 282.706 912 288C912 293.294 911.743 298.527 911.241 303.689ZM905.15 241.539L889.837 246.178C887.081 237.08 883.447 228.36 879.032 220.118L893.136 212.563C898.043 221.725 902.084 231.42 905.15 241.539ZM875.686 186.495L863.324 196.653C857.333 189.361 850.639 182.667 843.347 176.676L853.505 164.314C861.602 170.966 869.034 178.398 875.686 186.495ZM827.437 146.864L819.882 160.968C811.64 156.553 802.92 152.919 793.822 150.163L798.461 134.85C808.58 137.916 818.275 141.957 827.437 146.864ZM767.689 128.759L766.139 144.684C761.492 144.232 756.775 144 752 144C747.225 144 742.508 144.232 737.861 144.684L736.311 128.759C741.473 128.257 746.706 128 752 128C757.294 128 762.527 128.257 767.689 128.759ZM705.539 134.85L710.178 150.163C701.08 152.919 692.36 156.553 684.118 160.968L676.563 146.864C685.725 141.957 695.42 137.916 705.539 134.85ZM650.495 164.314L660.653 176.676C653.361 182.667 646.667 189.361 640.676 196.653L628.314 186.496C634.966 178.398 642.398 170.966 650.495 164.314ZM676.563 429.136L684.118 415.032C692.36 419.447 701.08 423.081 710.178 425.837L705.539 441.15C695.42 438.084 685.725 434.043 676.563 429.136ZM736.311 447.241L737.861 431.316C742.508 431.768 747.225 432 752 432C756.775 432 761.492 431.768 766.139 431.316L767.689 447.241C762.527 447.743 757.294 448 752 448C746.706 448 741.473 447.743 736.311 447.241ZM798.461 441.15L793.822 425.837C802.92 423.081 811.64 419.447 819.882 415.032L827.437 429.136C818.275 434.043 808.58 438.084 798.461 441.15ZM853.505 411.686L843.347 399.324C850.639 393.333 857.333 386.639 863.324 379.347L875.686 389.504C869.034 397.602 861.602 405.034 853.505 411.686ZM893.136 363.437L879.032 355.882C883.447 347.64 887.081 338.92 889.837 329.822L905.15 334.461C902.084 344.58 898.043 354.275 893.136 363.437Z" fill="#26D7A0"/>
<path d="M688 256.925C688 293.364 713.041 318.613 748.323 318.613C753.629 318.613 758.656 317.688 763.31 316.486L717.137 384H757.632L801.757 319.075C818.141 294.844 826.054 276.069 826.24 256.092C826.333 215.399 794.31 192 756.422 192C716.672 192 688 217.988 688 256.925ZM726.726 255.538C726.726 236.763 739.014 223.26 756.608 223.26C774.295 223.26 786.769 236.763 786.769 255.723C786.769 274.497 774.295 287.815 756.608 287.815C739.014 287.815 726.726 274.497 726.726 255.538Z" fill="#26D7A0"/>
</svg>
