<svg viewBox="0 0 555.91 165.46" xmlns="http://www.w3.org/2000/svg" xmlns:xlink="http://www.w3.org/1999/xlink"><filter id="a" filterUnits="userSpaceOnUse"><feOffset dx="0" dy="7"/><feGaussianBlur result="blur" stdDeviation="7"/><feFlood flood-opacity=".4"/><feComposite in2="blur" operator="in"/><feComposite in="SourceGraphic"/></filter><path d="m467.84 34.86c1.5 0 2.93.39 4.25 1.11 1.41.77 2.51 1.87 3.31 3.28.76 1.35 1.19 2.82 1.19 4.37s-.42 2.98-1.16 4.32c-.77 1.4-1.87 2.48-3.26 3.26-1.34.75-2.79 1.16-4.33 1.16s-3-.4-4.35-1.17c-1.38-.78-2.48-1.87-3.25-3.25-.74-1.34-1.16-2.79-1.16-4.32s.41-3.01 1.15-4.36c.78-1.42 1.9-2.52 3.33-3.3 1.33-.72 2.77-1.11 4.28-1.11zm52.44 81.62c5.95 0 10.96-2.14 15.12-6.39 4.21-4.31 6.28-9.47 6.28-15.5s-2.05-11.24-6.28-15.58c-4.16-4.25-9.17-6.38-15.12-6.38s-10.96 2.13-15.11 6.38c-4.22 4.34-6.29 9.54-6.29 15.58s2.09 11.18 6.29 15.5c4.15 4.26 9.17 6.39 15.11 6.39m-136.55 0c5.94 0 10.95-2.14 15.11-6.39 4.21-4.31 6.28-9.47 6.28-15.5s-2.05-11.24-6.28-15.58c-4.16-4.25-9.17-6.38-15.11-6.38s-10.96 2.13-15.12 6.38c-4.22 4.34-6.29 9.54-6.29 15.58s2.08 11.18 6.29 15.5c4.15 4.26 9.17 6.39 15.12 6.39zm-105.34 0c5.95 0 10.96-2.14 15.12-6.39 4.21-4.31 6.28-9.47 6.28-15.5s-2.05-11.24-6.28-15.58c-4.16-4.25-9.17-6.38-15.12-6.38s-10.96 2.13-15.11 6.38c-4.22 4.34-6.28 9.54-6.28 15.58s2.08 11.18 6.28 15.5c4.15 4.26 9.17 6.39 15.11 6.39zm159.63-3.27c1.5 0 2.93.39 4.25 1.11 1.42.77 2.51 1.88 3.31 3.28.76 1.35 1.19 2.82 1.19 4.37s-.42 2.99-1.16 4.32c-.77 1.4-1.87 2.48-3.26 3.26-1.34.75-2.79 1.17-4.33 1.17s-3-.4-4.35-1.17c-1.38-.78-2.49-1.87-3.25-3.26-.74-1.33-1.16-2.79-1.16-4.32s.42-3.01 1.16-4.35c.78-1.43 1.9-2.53 3.32-3.3 1.33-.72 2.77-1.11 4.28-1.11zm82.26-54.88c9.88 0 18.27 3.64 25.19 10.67 6.97 7.08 10.44 15.65 10.44 25.6s-3.47 18.47-10.45 25.53c-6.92 7.01-15.33 10.59-25.19 10.59s-18.26-3.57-25.17-10.59c-6.97-7.08-10.47-15.6-10.47-25.53s3.5-18.5 10.46-25.6c6.91-7.04 15.29-10.67 25.17-10.67zm-52.44 0c1.96 0 3.66.74 5 2.1 1.42 1.37 2.14 3.09 2.14 5.06v58.15c0 1.97-.72 3.67-2.12 5.02-1.38 1.37-3.07 2.06-5.02 2.06s-3.64-.68-5.03-2.05-2.13-3.06-2.13-5.02v-58.15c0-1.96.73-3.67 2.11-5.03 1.38-1.4 3.08-2.13 5.05-2.13zm-84.11 0c9.88 0 18.26 3.64 25.19 10.67 6.97 7.08 10.45 15.65 10.45 25.6s-3.47 18.47-10.45 25.53c-6.92 7.01-15.33 10.59-25.18 10.59s-18.26-3.57-25.17-10.59c-6.97-7.08-10.47-15.6-10.47-25.53s3.5-18.5 10.47-25.6c6.91-7.04 15.29-10.67 25.17-10.67zm-105.34 0c9.88 0 18.26 3.64 25.19 10.67 6.98 7.08 10.45 15.65 10.45 25.6s-3.47 18.47-10.45 25.53c-6.92 7.01-15.34 10.59-25.19 10.59s-18.26-3.57-25.17-10.59c-6.97-7.08-10.47-15.6-10.47-25.53s3.5-18.5 10.47-25.6c6.91-7.04 15.29-10.67 25.17-10.67zm52.69-23.6c1.97 0 3.66.73 5.04 2.13 1.37 1.38 2.06 3.08 2.06 5.03v81.76c0 1.94-.7 3.63-2.08 5.04-1.4 1.35-3.08 2.04-5.02 2.04s-3.65-.69-5.08-2.06c-1.38-1.38-2.06-3.07-2.06-5.02v-81.75c0-1.96.67-3.65 2.06-5.04 1.4-1.4 3.1-2.12 5.08-2.12zm-115.65 95.99c-5.11 0-9.79-1.58-14.03-4.42-3.6-2.41-6.58-5.43-8.85-9.12-1.02-1.65-1.31-3.47-.84-5.32.43-1.9 1.47-3.41 3.14-4.5 1.66-1.01 3.5-1.28 5.39-.83 1.9.45 3.39 1.53 4.42 3.19 1.15 1.87 2.75 3.37 4.55 4.59 1.86 1.27 3.94 2.17 6.23 2.17s4.4-.69 6.18-2.28c1.6-1.37 2.5-3.03 2.5-5.16 0-1.73-.43-3.36-1.87-4.43-1.89-1.41-6.5-2.68-8.77-3.3-4.35-1.19-9.72-2.95-13.4-5.62-5.29-3.84-7.6-9.24-7.6-15.68 0-6.08 2.37-11.2 6.79-15.35 4.52-4.26 9.96-6.32 16.17-6.32 4.51 0 8.74 1.16 12.58 3.53 3.75 2.31 6.57 5.48 8.42 9.48.83 1.78.92 3.63.23 5.48-.68 1.85-1.95 3.17-3.74 3.98-1.75.8-3.6.86-5.4.21-1.84-.67-3.19-1.94-4.03-3.73-.66-1.47-1.75-2.59-3.09-3.42-1.53-.88-3.2-1.29-4.97-1.29-2.36 0-4.44.7-6.23 2.26-1.58 1.38-2.43 3.07-2.43 5.17 0 1.65.38 3.27 1.72 4.29 1.91 1.36 6.54 2.63 8.8 3.26 4.32 1.2 9.82 2.97 13.47 5.65 5.28 3.87 7.59 9.36 7.59 15.85 0 6.08-2.31 11.22-6.73 15.38-4.51 4.26-10 6.29-16.19 6.29z" fill="#35393b"/><circle cx="82.73" cy="82.73" fill="#158bc2" r="82.73" transform="matrix(.16160382 -.98685572 .98685572 .16160382 -12.28 151)"/><g fill-rule="evenodd"><path d="m65.48 131.64c9.5 0 11.3-6.19 17.58-6.24 6.28.05 8.09 6.24 17.58 6.24 10.66 0 20.15-15.33 23.23-35.4 1.36 2.44 2.7 4.86 3.81 7.08 4.51 9.04 9.59 8.68 12.56 7.01s4.37-7.9-.38-14.88c-2.87-4.22-9.55-10.23-14.95-13.75-.41-21.78-18.95-36.42-41.84-36.58-7.44.05-14.42 1.63-20.47 4.49-.94.45-2.42.44-3.04-.37-1.71-2.26-3.73-3.75-5.61-4.66-1.35-.65-2.37-1.19-2.37-2.42 0-1.12-.15-2.27-.52-3.4-1.77-5.29-7.84-8.26-13.13-6.49s-7.79 7.62-6.02 12.91 7.5 8.14 12.79 6.36c1.1-.37 2.1-.91 2.96-1.58.85-.66 1.52-.89 2.79-.88 1.82.02 6.17 3.67 3.66 5.89-7.46 6.59-12.56 15.41-12.88 26.29-5.51 3.44-12.63 9.79-15.63 14.18-4.75 6.98-3.35 13.21-.38 14.88s8.05 2.04 12.56-7.01c1.25-2.51 2.81-5.29 4.34-8.04 2.92 20.53 12.54 36.36 23.37 36.36" fill="#fff" filter="url(#a)"/><path d="m118.09 69.54c.83-.14 1.75.54 2.05 1.52s-.13 1.89-.96 2.04c-.83.14-1.75-.54-2.05-1.52s.13-1.89.96-2.04m-33.71-11.68c-7.44 1.52-9.75-5.65-.35-7.92 11.78-2.85 28.5 4.83 33.52 15.41 1.34 2.82-.75 3.87-3.03 1.05-6.32-7.81-17.67-11.09-30.14-8.54z" fill="#158bc2"/></g></svg>