<?xml version="1.0" encoding="utf-8"?>
<!-- Generator: Adobe Illustrator 22.0.0, SVG Export Plug-In . SVG Version: 6.00 Build 0)  -->
<svg version="1.1" id="Layer_1" xmlns="http://www.w3.org/2000/svg" xmlns:xlink="http://www.w3.org/1999/xlink" x="0px" y="0px"
	 viewBox="0 0 327 91.8" style="enable-background:new 0 0 327 91.8;" xml:space="preserve">
<style type="text/css">
	.st0{fill:#262B3E;}
	.st1{fill:#663399;}
	.st2{fill-opacity:0;}
	.st3{fill:#FEFEFE;}
	.st4{fill:none;stroke:#FEFEFE;stroke-miterlimit:10;}
	.st5{fill:#DBDBDB;}
	.st6{fill:#F05A2B;}
	.st7{fill:#333333;}
	.st8{fill:#FFFFFF;}
	.st9{fill:#563A39;}
	.st10{fill:#AF8070;}
	.st11{fill:#348FC0;}
	.st12{fill:#060707;}
	.st13{fill:#4B3938;}
	.st14{fill:url(#SVGID_1_);}
	.st15{fill:none;stroke:#FFFFFF;stroke-width:6;stroke-miterlimit:10;}
	.st16{fill:none;stroke:#5F4A8B;stroke-miterlimit:10;stroke-dasharray:3.0176,3.0176;}
	.st17{fill:#C6C6C4;stroke:#FFFFFF;stroke-width:3;stroke-miterlimit:10;}
	.st18{fill:#326DE6;}
	.st19{fill:#FAFBFD;}
	.st20{fill:#FFFFFF;stroke:#5F4A8B;stroke-width:10;stroke-miterlimit:10;}
	.st21{fill:none;stroke:#9A346D;stroke-miterlimit:10;stroke-dasharray:3.0176,3.0176;}
	.st22{fill:#FFFFFF;stroke:#9A346D;stroke-width:10;stroke-miterlimit:10;}
	.st23{fill:none;stroke:#D22050;stroke-miterlimit:10;stroke-dasharray:3.0176,3.0176;}
	.st24{fill:#FFFFFF;stroke:#D22050;stroke-width:10;stroke-miterlimit:10;}
	.st25{fill:#F15A29;}
	.st26{fill:none;stroke:#C6C6C4;stroke-width:2;stroke-miterlimit:10;}
	.st27{fill:#4C4C4C;}
	.st28{fill:#4C4C4C;stroke:#FCFCFC;stroke-width:2;stroke-miterlimit:10;}
	.st29{fill:#8C8CF8;}
	.st30{fill:#262626;}
	.st31{fill:url(#SVGID_2_);}
	.st32{fill:#103766;}
	.st33{fill:#D7D7D7;}
	.st34{fill:#034868;}
	.st35{fill:#F1A64E;}
	.st36{fill:#262625;}
	.st37{fill:#9AD6D2;}
	.st38{fill:#EDECED;}
	.st39{fill:none;stroke:#673694;stroke-miterlimit:10;stroke-dasharray:2.9976,2.9976;}
	.st40{fill:#673694;}
	.st41{fill:none;stroke:#673694;stroke-linejoin:round;stroke-miterlimit:10;stroke-dasharray:2;}
	.st42{fill:none;stroke:#673694;stroke-miterlimit:10;}
	.st43{fill:none;stroke:#673694;stroke-linejoin:round;stroke-miterlimit:10;}
	.st44{fill:none;stroke:#673694;stroke-linecap:round;stroke-linejoin:round;stroke-miterlimit:10;}
	.st45{fill:none;stroke:#673694;stroke-miterlimit:10;stroke-dasharray:3.0288,3.0288;}
	.st46{fill:#EDECED;stroke:#673693;stroke-miterlimit:10;}
	.st47{fill:none;stroke:#673694;stroke-miterlimit:10;stroke-dasharray:3;}
</style>
<g>
	<path class="st25" d="M279.9,42.8c1.6,0.4,3,1.1,4.1,2.3c0.9,1,1.4,2.2,1.4,3.6c0,2.7,0,5.3,0,8c0,3.3-2,5.6-5.6,6.3
		c-1,0.2-2,0.3-3,0.3c-9.4,0-18.8,0-28.2,0c-0.6,0-0.8-0.2-0.8-0.8c0-12.1,0-24.2,0-36.2c0-0.6,0.2-0.8,0.8-0.8c9.1,0,18.2,0,27.3,0
		c1.6,0,3.2,0.2,4.7,0.9c2.3,1,3.7,2.7,3.8,5.2c0.1,2.4,0.1,4.9-0.1,7.3c-0.2,2.4-1.1,3.4-4,3.9C280.3,42.8,280.1,42.8,279.9,42.8z
		 M265,58.7c3.5,0,7,0,10.4,0c0.9,0,1.9-0.2,2.8-0.4c1.1-0.3,1.8-1.2,1.8-2.4c0.1-2.2,0.1-4.4,0-6.6c0-1.7-0.9-2.6-2.6-3
		c-0.5-0.1-1.1-0.2-1.6-0.2c-7.4,0-14.8,0-22.2,0c-0.6,0-0.7,0.2-0.7,0.7c0,3.7,0,7.5,0,11.2c0,0.7,0.2,0.8,0.8,0.8
		C257.6,58.6,261.3,58.7,265,58.7L265,58.7z M264.7,41.4L264.7,41.4c3.6-0.1,7.3,0,10.9-0.1c2.3,0,3.7-1.3,3.7-3.4c0-1.5,0-3,0-4.5
		c0-1.6-0.8-2.7-2.4-3.2c-0.7-0.2-1.4-0.3-2.2-0.3c-7,0-14,0-20.9,0c-0.6,0-0.8,0.2-0.8,0.8c0,3.3,0,6.5,0,9.8c0,0.9,0,0.9,0.9,0.9
		L264.7,41.4z"/>
	<path class="st25" d="M214.8,46v0.8c0,2.3,0,4.7,0,7c0,2.9,1.9,4.8,4.8,4.8c8.4,0,16.7,0,25.1,0c1.3,0,1.2-0.1,1.2,1.2
		c0,0.9,0,1.8,0,2.7c0,0.6-0.2,0.7-0.8,0.7c-2.8,0-5.5,0-8.3,0c-6.1,0-12.2-0.1-18.4,0c-4.4,0.1-8.3-3.2-8.7-7.3
		c0-0.4-0.1-0.8-0.1-1.2c0-6.9,0-13.8,0-20.8c0-4.9,3.7-8.6,8.6-8.6c8.9,0,17.8,0,26.7,0c0.6,0,0.9,0.1,0.8,0.8
		c-0.1,1.1,0,2.2,0,3.3c0,0.4-0.1,0.6-0.5,0.6c-0.2,0-0.4,0-0.6,0c-8.4,0-16.8,0-25.2,0c-2.4,0-4.1,1.3-4.6,3.6
		c-0.1,0.4-0.1,0.8-0.1,1.2c0,1.9,0,3.8,0,5.7c0,0.7,0.2,0.8,0.8,0.8c8.1,0,16.1,0,24.2,0c0.9,0,0.9,0,0.9,0.9c0,1,0,2,0,3.1
		c0,0.6-0.2,0.8-0.8,0.8c-7.6,0-15.2,0-22.8,0L214.8,46z"/>
	<path class="st25" d="M288.1,58.6h0.9c8.4,0,16.8,0,25.2,0c2.8,0,4.7-1.7,4.8-4.5c0.1-1.3,0-2.7,0-4c-0.1-2.3-2.1-4.1-4.4-4.1
		c-6.4,0-12.7,0-19.1,0c-1.5,0-2.9-0.3-4.2-1c-2.5-1.4-4.3-3.5-4.5-6.4c-0.2-2.2-0.2-4.4,0.1-6.5c0.5-3.8,4.1-6.7,8-6.7
		c8.6,0,17.2,0,25.8,0c0.5,0,0.7,0.2,0.7,0.7c0,1.1,0,2.1,0,3.2c0,0.6-0.2,0.7-0.8,0.7c-8.1,0-16.1,0-24.2,0c-1.7,0-3.1,0.6-4,2.1
		c-1,1.5-1,5.7,0.1,7.2c1,1.3,2.3,2,3.9,2c6.3,0,12.5,0,18.8,0c1.5,0,3,0.3,4.3,1.1c2.8,1.7,4.3,4.1,4.4,7.4c0,1.8,0,3.5,0,5.3
		c0,4.6-3.7,8.3-8.3,8.4c-9,0-18.1,0-27.1,0c-0.5,0-0.7-0.1-0.7-0.6C288.1,61.3,288.1,60,288.1,58.6z"/>
	<path class="st25" d="M123.3,74c-1.6,0-3,0-4.5,0c-0.1,0-0.3-0.2-0.4-0.4c-0.1-0.2,0-0.4,0-0.6c0-12.2,0-24.5,0-36.7c0-1,0-1,1-1
		c6.4,0,12.8,0,19.2,0c2.4,0,4.5,0.8,6.2,2.5c1.4,1.4,2,3,2,5c0,4.3,0,8.6,0,12.9c0,4-3.4,7.4-7.6,7.5c-4,0.1-7.9,0-11.9,0
		c-1.1,0-2.2,0-3.3,0c-0.6,0-0.7,0.2-0.7,0.7c0,3.1,0,6.1,0,9.2L123.3,74z M123.3,49.2c0,3,0,5.9,0,8.9c0,0.5,0,0.8,0.6,0.8
		c4.7,0,9.4,0,14.1,0c2.1,0,3.8-1.8,3.8-3.8c0-3.8,0-7.7,0-11.5c0-0.6-0.2-1.2-0.5-1.7c-0.9-1.6-2.4-2.1-4.2-2.1
		c-4.4,0-8.7,0-13.1,0c-0.6,0-0.8,0.2-0.8,0.8C123.3,43.4,123.3,46.3,123.3,49.2L123.3,49.2z"/>
	<path class="st25" d="M165.2,51.8c-3.7,0-7.3,0-11,0c-0.7,0-0.9,0.2-0.9,0.9c0,1.3,0,2.5,0,3.8c0,1.6,0.9,2.5,2.6,2.6
		c2.8,0,5.7,0,8.5,0c3.1,0,6.2,0,9.2,0c0.6,0,0.7,0.2,0.7,0.7c0,1,0,2,0,2.9c0,0.4-0.2,0.6-0.6,0.6c-6.4,0-12.8,0-19.2,0
		c-2.8,0-5.3-1.9-5.9-4.3c-0.1-0.6-0.2-1.1-0.2-1.7c0-4.7,0-9.4,0-14.1c0-4,3-7.3,7-7.6c1.2-0.1,2.3-0.1,3.5-0.1
		c3.6,0,7.3-0.1,10.9,0.1c3.3,0.2,6.2,2.8,6.9,5.9c0.1,0.5,0.1,1,0.1,1.5c0,2.7,0,5.4,0,8.1c0,0.7-0.2,0.9-0.9,0.8
		C172.4,51.8,168.8,51.8,165.2,51.8z M162.7,47.5c2.9,0,5.7,0,8.6,0c0.6,0,0.8-0.1,0.8-0.7c0-0.9,0-1.9,0-2.8c0-2.2-1.7-4.1-3.9-4.1
		c-3.6-0.1-7.2-0.1-10.8,0c-2.2,0-3.9,1.9-3.9,4.1c0,1,0,1.9,0,2.9c0,0.6,0.2,0.7,0.7,0.7C157,47.4,159.8,47.5,162.7,47.5z"/>
	<path class="st25" d="M207.5,52.3c0,3.4,0,6.8,0,10.2c0,0.6-0.2,0.8-0.8,0.8c-1.1,0-2.3,0-3.4,0c-0.6,0-0.7-0.2-0.7-0.8
		c0-6.1,0-12.1,0-18.2c0-2.7-1.4-4.4-4.1-4.5c-3.7-0.2-7.4-0.1-11,0c-2.5,0.1-3.9,1.8-3.9,4.3c0,5.1,0,10.2,0,15.3c0,1,0,2.1,0,3.1
		c0,0.5-0.1,0.7-0.6,0.7c-1.2,0-2.5,0-3.7,0c-0.5,0-0.6-0.2-0.6-0.6c0-6.7,0-13.3,0-20c0-3.5,2.9-6.6,6.5-7.1c0.5-0.1,1-0.1,1.5-0.1
		c4.3,0,8.5,0,12.8,0c2.9,0,5.2,1.3,6.9,3.6c0.7,1,1.1,2.1,1.1,3.3C207.5,45.6,207.5,48.9,207.5,52.3L207.5,52.3z"/>
	<path class="st25" d="M115.5,44.1c0,3.5,0,7,0,10.4c0,3.9-2.8,7.3-6.6,8.1c-0.6,0.1-1.2,0.2-1.8,0.2c-0.4,0-0.8,0-1.2,0
		c-5.2,0.1-10.3,0-15.5,0.1c-1.5,0-3,0-4.5,0c-1,0-2.1,0-3-0.3c-3.1-0.9-5.1-2.9-6-6c-0.2-0.7-0.3-1.4-0.3-2.1c0-0.8,0-1.7,0-2.5
		c0-5.5,0-11,0-16.5c0-0.9,0-1.8,0-2.7c0.1-1.6,0.6-3,1.6-4.3c1.3-1.8,3.3-3.1,5.5-3.4c0.8-0.1,1.7-0.1,2.5-0.1
		c2.8-0.1,5.6,0,8.4-0.1c2.8,0,5.6,0,8.4,0c1.4,0,2.8,0,4.2,0c2.1,0,4,0.8,5.5,2.2c1.4,1.2,2.3,2.9,2.6,4.7c0.1,0.6,0.1,1.1,0.2,1.7
		C115.5,37.2,115.5,40.7,115.5,44.1L115.5,44.1z M96.2,58.4L96.2,58.4c2.9,0,5.9,0,8.8,0c0.6,0,1.2,0,1.8-0.1c1.2-0.1,2.3-0.8,3-1.7
		c0.5-0.6,0.8-1.4,0.9-2.2c0-0.4,0-0.9,0-1.3c0-1,0-2,0-3c0-0.7,0-1.5,0-2.2l0-2.6l0-2.3l0-2.5c0-0.8,0-1.6,0-2.4c0-1.1,0-2.2,0-3.3
		c0-0.5,0-0.9-0.1-1.4c-0.1-1-0.6-1.8-1.3-2.5c-0.9-0.8-1.9-1.2-3.1-1.2c-0.2,0-0.3,0.1-0.5,0.1c-0.3,0-0.6,0-0.8,0
		c-1.1,0-2.2,0-3.4,0c-4.8,0-9.6,0-14.4,0c-0.5,0-1,0-1.5,0.1c-1.1,0.1-2.1,0.6-2.8,1.4c-0.7,0.8-1.2,1.7-1.2,2.8c0,0.9,0,1.8,0,2.6
		l0,2.4l0,2.6l0,2.4l0,2.5l0,2.3c0,0.8,0,1.7,0,2.5c0,0.7,0,1.4,0,2.1c0,0.5,0.1,1.1,0.2,1.6c0.6,2.3,2.4,3.3,4.5,3.4
		c0.1,0,0.2-0.1,0.2-0.1c0.5,0,0.9,0,1.4,0H96.2z"/>
</g>
<g>
	<path class="st9" d="M12.1,6.8h1.1c0,0.1,0.1,0,0.1,0c0.5,0.1,0.9,0.2,1.4,0.4c1.1,0.5,1.9,1.3,2.6,2.2c1.1,1.5,1.8,3.2,2.4,4.9
		c0.5,1.6,0.8,3.1,1.1,4.7c0.3,1.6,0.6,3.3,0.8,4.9c0.2,1.4,0.2,2.8,0.3,4.1c-0.3,0.6-0.5,1.2-0.7,1.8c-0.2,0.7-0.4,1.4-0.5,2.2
		c-0.5-1.6-0.6-3.3-0.5-5c-0.3,0.7-0.6,1.4-0.8,2c0-0.2,0-0.4,0-0.6c0-1.1,0-2.2-0.1-3.3c-0.1-1.9-0.3-3.8-0.7-5.6
		c-0.4-2.1-1-4.1-2-6.1c-0.5-0.9-1-1.8-1.8-2.5c-0.7-0.7-1.5-1.2-2.6-1.2c-1.4,0-2.6,0.4-3.6,1.3c-0.7,0.6-1.1,1.4-1.4,2.3
		c-0.5,1.4-0.5,2.9-0.4,4.3c0.2,1.9,0.6,3.7,1.2,5.5c1.3,4.2,3.2,8.1,5.7,11.7c0.8,1.1,1.6,2.2,2.7,3.1c0.5,0.5,0.8,0.4,1.2-0.2
		c0.4-0.8,0.7-1.6,0.9-2.4c0.2-0.6,0.3-1.1,0.4-1.7c0.1,0.5,0.2,1,0.4,1.4c0.3,0.7,0.5,1.4,1.3,1.8c0.1,0,0.1,0.1,0.1,0.2
		c-0.2,0.7-0.1,1.3,0.1,2c0.2,0.7,0.4,1.4,0.6,2c0.2,0.4,0.3,0.8,0.6,1.2c-0.1-0.7-0.1-1.3,0.1-2c0.2-0.7,0.4-1.3,0.8-1.9
		c-0.3,2.5,0.2,4.9,1,7.2c0,0,0-0.1,0-0.1c0-1.3,0-2.5,0.2-3.8c0.1-0.8,0.2-1.5,0.5-2.2c0.2-0.4,0.4-0.7,0.8-0.9
		c0.1-0.1,0.2-0.1,0.2,0.1c0.4,0.9,0.7,1.8,0.9,2.8c0.1,0.6,0.2,1.3,0.1,1.9c0,0,0,0.1,0,0.1c0.1,0,0.1,0,0.1-0.1
		c0.9-1.2,1.6-2.5,1.9-4.1c0.1-0.4,0.1-0.8,0.1-1.1c0-0.4-0.1-0.7-0.1-1.1l0,0c0.4,0.4,0.8,0.8,1.2,1.2c0.7,0.9,1.2,1.8,1.5,2.8
		c0.1,0.5,0.2,1.1,0.2,1.6c0,0.3-0.1,0.6-0.1,1c0,0,0,0,0,0l0,0l0-0.1c0-0.1,0.1-0.1,0.1-0.2c0.4-0.9,0.8-1.8,1.1-2.8
		c0.2-0.9,0.4-1.7,0.4-2.6c0-0.1,0-0.2,0-0.3c0.2,0.1,0.3,0.2,0.4,0.4c0.4,0.5,0.5,1.1,0.6,1.7c0.1,0.4,0.1,0.8,0.2,1.2
		c0.1-0.2,0.2-0.4,0.2-0.6c0.3-1.1,0.5-2.2,0.4-3.4c-0.1-0.5-0.2-1-0.5-1.5c-0.1-0.1-0.1-0.2,0-0.3c0.2-0.3,0.3-0.6,0.4-0.9
		c0,0,0,0.1,0,0.1c0.2,1.1,0.6,2.1,1.1,3c0.4,0.7,0.7,0.7,1.2,0.2c0.7-0.6,1.3-1.3,1.8-2c1.7-2.2,3-4.6,4.2-7.1
		c1.5-3,2.5-6.2,3.2-9.5c0.3-1.5,0.5-3,0.3-4.5c-0.2-1.2-0.6-2.4-1.3-3.4c-0.7-0.9-1.7-1.4-2.9-1.7c-1.2-0.3-2.3-0.1-3.3,0.7
		c-0.6,0.4-1.1,1-1.5,1.5c-0.9,1.3-1.5,2.7-2,4.2c-0.5,1.5-0.8,3-1,4.6c-0.2,1.2-0.3,2.3-0.4,3.5c0,0.5-0.1,1.1-0.1,1.6
		c0,0.9,0,1.8,0,2.7c0,0.6,0.1,1.3,0.1,1.9c-0.1-0.3-0.3-0.7-0.4-1c-0.1-0.2-0.2-0.4-0.3-0.6c0,0.6,0,1.2,0,1.7
		c0,0.6-0.1,1.1-0.3,1.6c-0.2,0.5-0.5,0.9-1,1c-0.2,0.1-0.2,0-0.3-0.1c-0.1-0.4-0.2-0.8-0.1-1.3c0.1-0.6,0.4-1.2,0.7-1.7
		c0,0,0.1-0.1,0.1-0.1c0-0.1-0.1,0-0.2,0c-0.4,0-0.8,0.1-1.2,0.3c0.1-1.6,0.3-3.3,0.4-4.9c0.2-1.7,0.4-3.3,0.6-5
		c0.4-2.5,1-5,1.9-7.4c0.6-1.7,1.4-3.4,2.7-4.7c1.4-1.5,3-2,5-1.7c1.6,0.2,3,1,4.2,2.1c1.9,1.7,2.7,3.9,2.8,6.4c0,0.6,0,1.3,0,1.9
		c0,0.6-0.1,1.2-0.1,1.8c-0.2,1.8-0.6,3.6-1.2,5.4c-1.3,4.3-3.2,8.5-5.3,12.5c-0.3,0.6-0.7,1.2-1,1.8c-0.3,0.4-0.2,0.7,0.2,1
		c0,0,0.1,0.1,0.1,0.1c0.6,0.4,1.1,1,1.5,1.5c0.9,1.2,1.5,2.6,1.8,4c0.3,1.1,0.4,2.3,0.3,3.4c0,0.9-0.2,1.7-0.3,2.6
		c-0.1,1-0.2,1.9-0.4,2.9c-0.2,1.2-0.3,2.4-0.5,3.6c-0.2,1.5-0.5,3.1-0.7,4.6c-0.2,1.4-0.5,2.9-0.7,4.4c-0.2,1-0.3,2.1-0.5,3.1
		c-0.4,2-1.1,3.9-1.9,5.8c-0.1,0-0.1-0.1-0.1-0.2c-0.1-0.3-0.2-0.6-0.3-0.8c-0.9-1.8-2.1-3.6-3.5-5.1c-1.2-1.2-2.5-2.3-3.9-3.2
		c-1.6-1-3.2-1.7-5.1-1.9c-1.3-0.1-2.6,0.1-3.8,0.6c-1.4,0.6-2.6,1.4-3.6,2.4c-1.4,1.3-2.7,2.8-3.8,4.5c-0.9,1.3-1.5,2.8-2,4.3
		c-0.2,0.7-0.3,1.4-0.5,2c0,0.1-0.1,0.3-0.1,0.5c0-0.1-0.1-0.1-0.1-0.2c-0.6-1.4-1.2-2.9-1.8-4.4c-0.5-1.2-0.9-2.5-1.2-3.7
		c-0.3-1.5-0.4-3-0.5-4.5C9.5,65,9.5,64,9.4,63.1c-0.1-0.8-0.2-1.6-0.3-2.4c-0.1-1-0.2-2.1-0.2-3.1c-0.1-1.2-0.2-2.4-0.3-3.6
		c-0.1-1.1-0.2-2.2-0.3-3.3c-0.1-1.2,0-2.4,0.2-3.5c0.5-2.1,1.5-4,2.8-5.7c0.4-0.5,0.8-0.9,1.2-1.3c0.3-0.2,0.3-0.4,0.1-0.8
		c0-0.1-0.1-0.1-0.1-0.2c-1.5-2.6-2.9-5.2-4.1-8C7.1,28,5.8,24.6,5.1,21c-0.3-1.3-0.5-2.6-0.5-4c0,0,0-0.1,0-0.1v-0.6
		c0.1,0,0-0.1,0-0.1c0-0.4,0-0.8,0.1-1.2c0.1-1.3,0.5-2.5,1-3.7c1.1-2.2,3-3.5,5.3-4.2C11.4,6.9,11.7,6.9,12.1,6.8z M32.6,60
		c0.2,0,0.4,0,0.6,0s0.4,0,0.5-0.1c2.4-0.4,4.5-1.4,6.2-3.2c1.1-1.2,1.5-2.6,1.1-4.2c-0.6-2-1.9-3.6-3.6-4.7c-1-0.6-2.2-0.7-3.3-0.4
		c-0.9,0.3-1.6,0.8-2.3,1.4c-1.5,1.5-2.5,3.4-3,5.5c-0.4,1.6-0.1,3,0.6,4.5c0.3,0.7,0.9,1.1,1.6,1.2C31.5,60.1,32,60,32.6,60z
		 M21.1,60.1c0.1,0,0.2,0,0.3,0c0.8,0,1.5-0.3,2-1c0.5-0.8,0.8-1.7,0.8-2.6c0.1-1.1-0.1-2.1-0.4-3.1c-0.7-2.5-2.1-4.4-4.4-5.6
		c-0.8-0.4-1.6-0.6-2.5-0.4c-1.2,0.3-2.1,1-3,1.8c-0.9,0.9-1.5,2-2,3.2c-0.5,1.4-0.3,2.7,0.6,3.9c0.5,0.7,1.2,1.3,1.9,1.8
		C16.5,59.5,18.7,60,21.1,60.1L21.1,60.1z"/>
	<path class="st10" d="M39.9,75.5c0.1,0.3,0.2,0.6,0.2,0.9c0.4,2-0.1,3.8-1.3,5.4c-1.5,2-3.5,3.3-5.8,4.1c-1.2,0.4-2.4,0.5-3.7,0.6
		c-0.1,0-0.1,0-0.2,0h-2.8c0-0.1-0.1,0-0.1,0c-1.6-0.1-3.2-0.2-4.9-0.5c-1.4-0.2-2.7-0.6-4-1.2c-2.7-1.3-4-3.5-4-6.5
		c0-0.1,0.1-0.2,0-0.3c0.2-0.7,0.3-1.4,0.5-2c0.4-1.5,1.1-3,2-4.3c1.1-1.7,2.3-3.1,3.8-4.5c1.1-1,2.3-1.8,3.6-2.4
		c1.2-0.5,2.5-0.7,3.8-0.6c1.9,0.2,3.5,0.9,5.1,1.9c1.4,0.9,2.8,2,3.9,3.2c1.4,1.5,2.6,3.2,3.5,5.1c0.1,0.3,0.2,0.5,0.3,0.8
		C39.8,75.4,39.8,75.5,39.9,75.5z M35.7,79.5c-0.1,0-0.1,0.1-0.2,0.1c-1.2,0.9-2.4,1.7-3.8,2.4c-2.1,0.9-4.3,1.2-6.5,0.7
		c-1.9-0.4-3.6-1.1-5.3-1.9c-0.7-0.4-1.4-0.8-2.1-1.2l0,0l0,0c0,0.1,0.1,0.2,0.1,0.2c1.6,2,3.6,3.4,6,4.2c1.9,0.6,3.8,0.8,5.8,0.2
		c2.3-0.6,4-1.9,5.4-3.8C35.3,80.2,35.5,79.9,35.7,79.5C35.7,79.5,35.7,79.5,35.7,79.5C35.7,79.5,35.7,79.5,35.7,79.5L35.7,79.5z
		 M36.3,73.5c0-0.3-0.1-0.5-0.2-0.8c-0.3-0.4-0.7-0.8-1.1-1.1c-0.9-0.7-2.2-0.5-3,0.2c-0.5,0.5-0.6,1.1-0.7,1.7
		c-0.1,1.2-0.4,2.3-1.1,3.2c-0.3,0.5-0.7,1.1-1.1,1.6C29,78.8,29,79,29.3,79.2c0.2,0.1,0.5,0.1,0.7,0c1.7-0.7,3.2-1.5,4.6-2.7
		C35.7,75.8,36.3,74.8,36.3,73.5L36.3,73.5z M17.8,73.9c0,0.4,0.1,0.8,0.3,1.2c0.5,0.9,1.2,1.5,2,2c1.1,0.7,2.2,1.3,3.4,1.9
		c0.2,0.1,0.5,0.2,0.7,0.2c0.3,0.1,0.5,0,0.7-0.2c0.1-0.1,0.2-0.3,0.1-0.4c-0.1-0.2-0.2-0.4-0.3-0.5c-0.1-0.1-0.2-0.1-0.1-0.2
		c0-0.1-0.1-0.2-0.1-0.3c-0.1-0.1-0.2-0.2-0.2-0.3c-0.9-1.1-1.3-2.4-1.3-3.8c-0.1-1.5-1.3-2.5-2.7-2.3
		C18.9,71.5,17.8,72.6,17.8,73.9L17.8,73.9z"/>
	<path class="st10" d="M48.5,15.4L48.5,15.4l0,1.9l0,0h0C48.5,16.7,48.5,16.1,48.5,15.4z"/>
	<path class="st11" d="M19,33.9c-0.1,0.6-0.3,1.2-0.4,1.7c-0.2,0.8-0.5,1.6-0.9,2.4c-0.4,0.6-0.6,0.7-1.2,0.2c-1-0.9-1.9-2-2.7-3.1
		c-2.5-3.6-4.4-7.5-5.7-11.7c-0.6-1.8-0.9-3.6-1.2-5.5c-0.2-1.5-0.2-2.9,0.4-4.3c0.3-0.8,0.7-1.7,1.4-2.3c1-0.9,2.3-1.4,3.6-1.3
		c1,0,1.8,0.5,2.6,1.2c0.8,0.7,1.3,1.5,1.8,2.5c1,1.9,1.6,4,2,6.1c0.3,1.9,0.6,3.7,0.7,5.6c0.1,1.1,0.1,2.2,0.1,3.3
		c0,0.2,0,0.4,0,0.6c0,0.1,0,0.1,0,0.2c-0.3,1-0.4,2.1-0.4,3.2C18.9,33,18.9,33.5,19,33.9z"/>
	<path class="st11" d="M33.9,30.8c0-0.6-0.1-1.3-0.1-1.9c0-0.9,0-1.8,0-2.7c0-0.5,0.1-1.1,0.1-1.6c0.1-1.2,0.2-2.3,0.4-3.5
		c0.2-1.5,0.5-3.1,1-4.6c0.5-1.5,1.1-2.9,2-4.2c0.4-0.6,0.9-1.1,1.5-1.5c1-0.8,2.1-1,3.3-0.7c1.1,0.3,2.1,0.8,2.9,1.7
		c0.8,1,1.2,2.1,1.3,3.4c0.2,1.5,0,3-0.3,4.5c-0.6,3.3-1.7,6.5-3.2,9.5c-1.2,2.5-2.6,4.9-4.2,7.1c-0.5,0.7-1.1,1.4-1.8,2
		c-0.6,0.5-0.9,0.5-1.2-0.2c-0.5-0.9-0.8-2-1.1-3c0,0,0-0.1,0-0.1c0.2-0.7,0.1-1.5,0-2.2C34.3,32.1,34.1,31.5,33.9,30.8z"/>
	<path class="st12" d="M33.9,30.8c0.2,0.6,0.4,1.2,0.5,1.8c0.1,0.7,0.2,1.5,0,2.2c-0.1,0.3-0.2,0.6-0.4,0.9c-0.1,0.1-0.1,0.2,0,0.3
		c0.3,0.4,0.5,0.9,0.5,1.5c0.1,1.2-0.1,2.3-0.4,3.4c-0.1,0.2-0.1,0.4-0.2,0.6c-0.1-0.4-0.1-0.8-0.2-1.2c-0.1-0.6-0.2-1.2-0.6-1.7
		c-0.1-0.2-0.2-0.3-0.4-0.4c0,0.1,0,0.2,0,0.3c0,0.9-0.1,1.8-0.4,2.6c-0.3,1-0.6,1.9-1.1,2.8c0,0.1-0.1,0.1-0.1,0.2l0,0
		c0-0.3,0.1-0.6,0.1-1c0.1-0.6,0-1.1-0.2-1.6c-0.3-1.1-0.8-2-1.5-2.8c-0.4-0.5-0.7-0.9-1.2-1.2l0,0l0,0c0,0.4,0.1,0.7,0.1,1.1
		c0,0.4,0,0.8-0.1,1.1c-0.3,1.5-1,2.8-1.9,4c0,0-0.1,0.1-0.1,0.1c0,0,0-0.1,0-0.1c0.2-0.6,0.1-1.3-0.1-1.9c-0.2-1-0.5-1.9-0.9-2.8
		c-0.1-0.1-0.1-0.1-0.2-0.1c-0.4,0.2-0.6,0.5-0.8,0.9c-0.3,0.7-0.4,1.5-0.5,2.2c-0.2,1.3-0.2,2.5-0.2,3.8c0,0,0,0.1,0,0.1
		c-0.9-2.4-1.3-4.7-1-7.2c-0.4,0.6-0.6,1.2-0.8,1.9c-0.2,0.7-0.2,1.3-0.1,2c-0.2-0.4-0.4-0.8-0.6-1.2c-0.3-0.7-0.5-1.3-0.6-2
		c-0.1-0.7-0.3-1.3-0.1-2c0-0.1,0-0.1-0.1-0.2c-0.7-0.4-1-1.2-1.3-1.8c-0.2-0.5-0.3-0.9-0.4-1.4c0-0.4-0.1-0.9-0.1-1.3
		c0-1.1,0.1-2.1,0.4-3.2c0-0.1,0-0.1,0-0.2c0.2-0.7,0.5-1.4,0.8-2c-0.1,1.7,0,3.4,0.5,5c0.1-0.8,0.3-1.5,0.5-2.2
		c0.2-0.6,0.4-1.3,0.7-1.8c0,0.1,0,0.1,0,0.2c0,0,0,0,0,0.1c-0.1,0.5-0.1,0.9,0,1.4c0,0.2,0.1,0.5,0.2,0.7c0.1,0.5,0.4,1,0.6,1.6
		c0.4-1,0.7-2,0.4-3l0,0c0.3,0.2,0.5,0.6,0.8,0.8c0.3,0.4,0.6,0.9,0.9,1.3c0.2,0.4,0.4,0.9,0.6,1.3c0.2-1.1,0.6-2.2,1.1-3.2
		c0.2,1.3,0.4,2.4,1,3.5c0.2-0.2,0.3-0.4,0.4-0.6c0.5-0.9,0.7-1.8,0.5-2.7c0-0.2-0.1-0.4-0.1-0.6l0,0c0.6,0.9,1,1.9,1.4,3
		c0.1-0.2,0.3-0.4,0.4-0.6c0.3-0.3,0.6-0.6,1-0.7c0.4-0.2,0.8-0.3,1.2-0.3c0.1,0,0.1,0,0.2,0c0,0.1,0,0.1-0.1,0.1
		c-0.3,0.5-0.6,1.1-0.7,1.7c-0.1,0.4-0.1,0.9,0.1,1.3c0.1,0.2,0.1,0.2,0.3,0.1c0.5-0.2,0.8-0.6,1-1c0.2-0.5,0.3-1.1,0.3-1.6
		c0-0.6,0-1.1,0-1.7c0.1,0.2,0.2,0.4,0.3,0.6C33.6,30.2,33.8,30.5,33.9,30.8z"/>
	<path class="st8" d="M32.6,60c-0.5,0-1,0.1-1.5,0c-0.8-0.1-1.3-0.5-1.6-1.2c-0.7-1.4-1-2.9-0.6-4.5c0.5-2.1,1.4-3.9,3-5.5
		c0.6-0.7,1.4-1.1,2.3-1.4c1.2-0.4,2.3-0.3,3.3,0.4c1.8,1.1,3,2.6,3.6,4.7c0.5,1.6,0.1,3-1.1,4.2c-1.7,1.8-3.8,2.8-6.2,3.2
		c-0.2,0-0.4,0.1-0.5,0.1S32.7,60,32.6,60z M33.3,59.7c0.3,0,0.6,0,0.9-0.1c1.3-0.3,2.1-1.1,2.5-2.3c0.2-0.4,0.3-0.9,0.3-1.4
		c-0.1-0.6-0.5-0.8-1-0.6c-0.1,0.1-0.2,0.1-0.4,0.2c-0.1,0.1-0.3,0.1-0.4,0.2c-0.5,0.2-1,0-1.4-0.5c-0.3-0.5-0.3-0.9,0-1.4
		c0.1-0.1,0.2-0.3,0.4-0.4c0.4-0.5,0.2-1.2-0.4-1.3c-0.7-0.1-1.3-0.1-1.9,0.2c-1.2,0.5-2,1.2-2.3,2.5c-0.2,1-0.1,1.9,0.2,2.9
		c0.4,0.9,1,1.5,2,1.8C32.2,59.7,32.7,59.7,33.3,59.7L33.3,59.7z"/>
	<path class="st8" d="M21.1,60.1c-2.4-0.1-4.6-0.6-6.6-2.1c-0.7-0.5-1.4-1.1-1.9-1.8c-0.9-1.2-1.1-2.5-0.6-3.9
		c0.4-1.2,1.1-2.3,2-3.2c0.8-0.8,1.8-1.5,3-1.8c0.9-0.2,1.7,0,2.5,0.4c2.3,1.2,3.7,3.2,4.4,5.6c0.3,1,0.5,2,0.4,3.1
		c-0.1,0.9-0.4,1.8-0.8,2.6c-0.5,0.7-1.2,1-2,1C21.3,60.1,21.2,60.1,21.1,60.1z M15.9,56c0,0.1,0,0.3,0,0.5c0,0.1,0,0.3,0.1,0.4
		c0.4,1.3,1.1,2.3,2.5,2.7c0.4,0.1,0.8,0.1,1.2,0.1c0.8,0.1,1.5-0.1,2.1-0.5c1.1-0.8,1.8-1.8,1.6-3.2c-0.1-0.6-0.5-1-1.2-0.5
		c-0.1,0.1-0.2,0.2-0.3,0.2c-0.4,0.2-0.8,0.2-1.2-0.1C20,55,20,54.3,20.6,53.7c0.1-0.1,0.1-0.1,0.2-0.2c0.3-0.3,0.3-0.6,0.1-0.9
		c-0.2-0.2-0.4-0.4-0.7-0.4c-0.4,0-0.8,0-1.2,0C17.2,52.5,15.9,54.1,15.9,56L15.9,56z"/>
	<path class="st12" d="M31.2,44.1L31.2,44.1L31.2,44.1C31.2,44.2,31.2,44.1,31.2,44.1L31.2,44.1z"/>
	<path class="st12" d="M36.3,73.5c0,1.3-0.6,2.3-1.6,3.1c-1.4,1.1-3,2-4.6,2.7c-0.2,0.1-0.5,0.1-0.7,0C29,79,29,78.8,29.2,78.5
		c0.4-0.5,0.7-1,1.1-1.6c0.6-1,1-2.1,1.1-3.2c0-0.6,0.2-1.3,0.7-1.7c0.8-0.8,2.1-0.9,3-0.2c0.4,0.3,0.8,0.6,1.1,1.1
		C36.3,73,36.4,73.2,36.3,73.5z"/>
	<path class="st12" d="M17.8,73.9c0-1.3,1.1-2.5,2.3-2.7c1.4-0.2,2.6,0.8,2.7,2.3c0.1,1.4,0.5,2.7,1.3,3.8c0.1,0.1,0.2,0.2,0.2,0.3
		c0.1,0.1,0.2,0.2,0.1,0.3c0,0.1,0.1,0.2,0.1,0.2c0.1,0.1,0.3,0.3,0.3,0.5c0.1,0.1,0,0.3-0.1,0.4c-0.2,0.2-0.4,0.3-0.7,0.2
		c-0.2-0.1-0.5-0.1-0.7-0.2c-1.1-0.6-2.3-1.1-3.4-1.9c-0.8-0.6-1.5-1.2-2-2C17.9,74.8,17.8,74.3,17.8,73.9z"/>
	<path class="st8" d="M17.7,79.6c0.7,0.4,1.4,0.8,2.1,1.2c1.7,0.8,3.4,1.6,5.3,1.9c2.3,0.4,4.4,0.2,6.5-0.7c1.4-0.6,2.6-1.5,3.8-2.4
		c0.1,0,0.1-0.1,0.2-0.1l0,0c-0.2,0.4-0.4,0.7-0.6,1c-1.4,1.8-3.2,3.2-5.4,3.8c-1.9,0.5-3.9,0.4-5.8-0.2c-2.4-0.8-4.4-2.2-6-4.2
		C17.8,79.8,17.7,79.7,17.7,79.6L17.7,79.6z"/>
	<path class="st8" d="M35.7,79.5L35.7,79.5C35.7,79.5,35.7,79.5,35.7,79.5C35.7,79.5,35.7,79.5,35.7,79.5L35.7,79.5z"/>
	<path class="st8" d="M17.7,79.6L17.7,79.6L17.7,79.6L17.7,79.6z"/>
	<path class="st11" d="M28.2,28.9c0,0.2,0.1,0.4,0.1,0.6c0.2,1-0.1,1.9-0.5,2.7c-0.1,0.2-0.2,0.4-0.4,0.6c-0.6-1.1-0.9-2.3-1-3.5
		c-0.5,1-0.9,2.1-1.1,3.2c-0.2-0.4-0.3-0.9-0.6-1.3c-0.3-0.5-0.6-0.9-0.9-1.3c0.6-0.8,1.4-1.3,2.4-1.4c0.1,0,0.1,0,0.2,0
		c0.2,0,0.3,0,0.5,0c0.4,0.1,0.8,0.2,1.2,0.3C28.1,28.8,28.2,28.9,28.2,28.9z"/>
	<path class="st11" d="M26.4,24.5c-0.9-0.2-1.4-1-1.3-1.9c0.2-0.9,1-1.4,1.9-1.3c0.3,0.1,0.5,0.2,0.7,0.3c0.7,0.5,0.8,1.5,0.3,2.2
		c-0.3,0.3-0.6,0.6-1.1,0.6C26.7,24.5,26.5,24.5,26.4,24.5z"/>
	<path class="st12" d="M26.4,24.5c0.2,0,0.3,0,0.5,0c0,1.2,0,2.3,0,3.5c0,0.2,0,0.3,0,0.5c-0.2,0-0.3,0-0.5,0L26.4,24.5z"/>
	<path class="st11" d="M30,31.3c-0.1,0.2-0.3,0.3-0.4,0.6c-0.3-1-0.8-2-1.4-3c0.4,0.2,0.7,0.5,1,0.8C29.6,30.2,29.9,30.7,30,31.3
		C30,31.3,30,31.3,30,31.3z"/>
	<path class="st13" d="M22,30.5c-0.1-0.2-0.1-0.5-0.2-0.7c-0.1-0.5-0.1-0.9,0-1.4c0,0,0-0.1,0-0.1C22,29,22,29.8,22,30.5z"/>
	<path class="st12" d="M23.1,29.1L23.1,29.1L23.1,29.1L23.1,29.1L23.1,29.1z"/>
	<path class="st13" d="M28.5,37.5L28.5,37.5L28.5,37.5L28.5,37.5z"/>
	<path class="st12" d="M33.3,59.7c-0.5,0-1,0-1.5-0.2c-0.9-0.3-1.6-0.9-2-1.8c-0.4-0.9-0.5-1.9-0.2-2.9c0.3-1.2,1.2-2,2.3-2.5
		c0.6-0.2,1.3-0.3,1.9-0.2c0.6,0.1,0.9,0.8,0.4,1.3c-0.1,0.1-0.3,0.3-0.4,0.4c-0.4,0.4-0.4,0.9,0,1.4c0.4,0.5,0.8,0.7,1.4,0.5
		c0.2-0.1,0.3-0.1,0.4-0.2c0.1-0.1,0.2-0.1,0.4-0.2c0.5-0.2,1,0.1,1,0.6c0.1,0.5-0.1,0.9-0.3,1.4c-0.5,1.2-1.3,2-2.5,2.3
		C33.9,59.7,33.6,59.7,33.3,59.7z"/>
	<path class="st12" d="M15.9,56c0-2,1.3-3.5,3.2-3.8c0.4-0.1,0.8-0.1,1.2,0c0.3,0,0.5,0.2,0.7,0.4c0.2,0.3,0.2,0.6-0.1,0.9
		c-0.1,0.1-0.1,0.1-0.2,0.2C20,54.3,20,55,20.7,55.6c0.4,0.3,0.8,0.3,1.2,0.1c0.1-0.1,0.2-0.1,0.3-0.2c0.6-0.5,1.1-0.1,1.2,0.5
		c0.1,1.4-0.5,2.5-1.6,3.2c-0.6,0.4-1.3,0.6-2.1,0.5c-0.4,0-0.8,0-1.2-0.1c-1.4-0.4-2.1-1.4-2.5-2.7c0-0.1-0.1-0.3-0.1-0.4
		C15.9,56.3,15.9,56.1,15.9,56z"/>
</g>
</svg>
