<?xml version="1.0" encoding="UTF-8"?>
<svg width="260px" height="260px" viewBox="0 0 260 260" version="1.1" xmlns="http://www.w3.org/2000/svg" xmlns:xlink="http://www.w3.org/1999/xlink">
    <!-- Generator: Sketch 51.2 (57519) - http://www.bohemiancoding.com/sketch -->
    <title>PrintAssets/devops_design1/design1@1x</title>
    <desc>Created with Sketch.</desc>
    <defs>
        <circle id="path-1" cx="125.192308" cy="124.807692" r="118.269231"></circle>
    </defs>
    <g id="PrintAssets/devops_design1/design1" stroke="none" stroke-width="1" fill="none" fill-rule="evenodd">
        <g id="Updated" transform="translate(5.000000, 5.000000)">
            <g id="Group-Copy-2">
                <path d="M125,246 C191.826455,246 246,191.826455 246,125 C246,58.1735453 191.826455,4 125,4 C58.1735453,4 4,58.1735453 4,125 C4,191.826455 58.1735453,246 125,246 Z M125,250 C55.9644063,250 0,194.035594 0,125 C0,55.9644063 55.9644063,0 125,0 C194.035594,0 250,55.9644063 250,125 C250,194.035594 194.035594,250 125,250 Z" id="Oval-2" fill="#002B4D" fill-rule="nonzero"></path>
                <mask id="mask-2" fill="white">
                    <use xlink:href="#path-1"></use>
                </mask>
                <g id="Oval-2-Copy-2" fill-rule="nonzero"></g>
                <path d="M206.731337,138.826757 L206.731337,136.668588 L207.127496,136.668588 L207.127496,138.826757 L207.639106,138.826757 L207.639106,139.553376 C209.248442,140.015459 210.05311,141.043372 210.05311,142.637114 C210.346626,142.748055 210.798837,142.989711 211.409746,143.362082 L210.343214,144.413032 L210.343214,147.862221 L210.802271,147.862221 L210.802271,148.32921 L211.394045,148.32921 L211.394045,149.645174 L210.802271,149.645174 L210.802271,150.091925 L210.113044,150.091925 L210.540466,166.272402 L211.801666,166.272402 L211.801666,167.576329 L210.802271,168.408579 L211.13748,182.454157 L212.436404,182.454157 L212.436404,183.835205 L211.13748,184.768119 L211.508482,197.701595 L226.725778,197.701595 L227.159873,178.951465 L225.33546,177.620843 L225.33546,175.651043 L227.159873,175.651043 L227.811257,155.617726 L226.135003,154.430681 L226.135003,152.570879 L227.811257,152.570879 L228.549854,129.492539 L227.516807,129.492539 L227.516807,128.855336 L226.695433,128.855336 L226.695433,126.978366 L227.516807,126.978366 L227.516807,126.312296 L228.334593,126.312296 L228.334593,121.39269 L226.949739,119.893712 L228.680385,118.859685 C228.589792,116.600872 229.612613,115.134752 231.748847,114.461325 C231.745138,114.080146 231.745138,113.734686 231.748847,113.424943 L232.362745,113.424943 L232.362745,110.34673 L232.92405,110.34673 L232.92405,113.424943 L233.648933,113.424943 L233.648933,114.461325 C235.929149,115.120398 237.069256,116.586518 237.069256,118.859685 C237.485128,119.01792 238.125853,119.362596 238.991429,119.893712 L237.480295,121.39269 L237.480295,126.312296 L238.130717,126.312296 L238.130717,126.978366 L238.969183,126.978366 L238.969183,128.855336 L238.130717,128.855336 L238.130717,129.492539 L237.154174,129.492539 L237.759774,152.570879 L239.546728,152.570879 L239.546728,154.430681 L238.130717,155.617726 L238.605665,175.651043 L240.446067,175.651043 L240.446067,177.620843 L238.605665,178.951465 L239.139959,197.701595 L240.794319,197.701595 L240.794319,210.954606 L206.225644,210.954606 C185.058782,230.872596 156.550782,243.076923 125.192308,243.076923 C93.8338339,243.076923 65.3258334,230.872596 44.1589716,210.954606 L9.61538462,210.954606 L9.61538462,197.701595 L11.1845188,197.701595 L11.6186147,178.951465 L9.79420143,177.620843 L9.79420143,175.651043 L11.6186147,175.651043 L12.2699987,155.617726 L10.5937443,154.430681 L10.5937443,152.570879 L12.2699987,152.570879 L13.0085953,129.492539 L11.9755486,129.492539 L11.9755486,128.855336 L11.1541743,128.855336 L11.1541743,126.978366 L11.9755486,126.978366 L11.9755486,126.312296 L12.7933341,126.312296 L12.7933341,121.39269 L11.4084799,119.893712 L13.1391262,118.859685 C13.0485335,116.600872 14.0713541,115.134752 16.2075881,114.461325 C16.203879,114.080146 16.203879,113.734686 16.2075881,113.424943 L16.8214858,113.424943 L16.8214858,110.34673 L17.3827911,110.34673 L17.3827911,113.424943 L18.1076741,113.424943 L18.1076741,114.461325 C20.3878898,115.120398 21.5279976,116.586518 21.5279976,118.859685 C21.9438697,119.01792 22.5845938,119.362596 23.4501698,119.893712 L21.9390366,121.39269 L21.9390366,126.312296 L22.5894587,126.312296 L22.5894587,126.978366 L23.427924,126.978366 L23.427924,128.855336 L22.5894587,128.855336 L22.5894587,129.492539 L21.6129156,129.492539 L22.2185154,152.570879 L24.005469,152.570879 L24.005469,154.430681 L22.5894587,155.617726 L23.0644061,175.651043 L24.9048083,175.651043 L24.9048083,177.620843 L23.0644061,178.951465 L23.5986999,197.701595 L37.1727336,197.701595 L37.4741597,184.768119 L36.1865207,183.835205 L36.1865207,182.454157 L37.4741597,182.454157 L37.9338951,168.408579 L36.7508241,167.576329 L36.7508241,166.272402 L37.9338951,166.272402 L38.4551837,150.091925 L37.7260774,150.091925 L37.7260774,149.645174 L37.1463658,149.645174 L37.1463658,148.32921 L37.7260774,148.32921 L37.7260774,147.862221 L38.3032561,147.862221 L38.3032561,144.413032 L37.3258502,143.362082 L38.5473101,142.637114 C38.4833713,141.053436 39.2052602,140.025523 40.7129768,139.553376 C40.7103589,139.286127 40.7103589,139.043921 40.7129768,138.826757 L41.146255,138.826757 L41.146255,136.668588 L41.5424145,136.668588 L41.5424145,138.826757 L42.0540242,138.826757 L42.0540242,139.553376 C43.6633605,140.015459 44.4680287,141.043372 44.4680287,142.637114 C44.761544,142.748055 45.2137558,142.989711 45.8246642,143.362082 L44.7581328,144.413032 L44.7581328,147.862221 L45.2171893,147.862221 L45.2171893,148.32921 L45.8089635,148.32921 L45.8089635,149.645174 L45.2171893,149.645174 L45.2171893,150.091925 L44.5279623,150.091925 L44.9553841,166.272402 L46.2165846,166.272402 L46.2165846,167.576329 L45.2171893,168.408579 L45.5523989,182.454157 L46.8513226,182.454157 L46.8513226,183.835205 L45.5523989,184.768119 L45.9234,197.701595 L65.7756318,197.701595 L65.7756318,158.79015 L65.6550522,158.79015 L65.6550522,152.301018 L65.3019111,152.301018 L65.3019111,150.949596 L64.8130942,150.949596 L64.8130942,150.109537 L65.3033397,150.109537 C65.3345669,149.636422 65.5453552,149.358388 65.9357049,149.275434 L65.9357049,147.589359 L66.4970102,147.589359 L66.4970102,149.277623 C66.7787605,149.333142 66.9537129,149.463245 67.0583156,149.6211 L67.0583156,145.300524 L66.7051745,145.300524 L66.7051745,143.949102 L66.2163576,143.949102 L66.2163576,143.109043 L66.7066031,143.109043 C66.7378303,142.635928 66.9486186,142.357894 67.3389683,142.27494 L67.3389683,140.588865 L67.9002736,140.588865 L67.9002736,142.277129 C68.4516786,142.385782 68.5940349,142.780107 68.6005502,143.109043 L69.0228844,143.109043 L69.0228844,143.949102 L68.6007884,143.949102 L68.6007884,145.300524 L68.1809263,145.300524 L68.1809263,151.144452 L71.6533882,151.144452 L73.5133273,153.171736 L73.5133273,150.06086 L73.1601861,150.06086 L73.1601861,148.709438 L72.6713692,148.709438 L72.6713692,147.869379 L73.1616148,147.869379 C73.1928419,147.396264 73.4036303,147.11823 73.7939799,147.035276 L73.7939799,145.349201 L74.3552853,145.349201 L74.3552853,147.037465 C74.9066902,147.146118 75.0490465,147.540443 75.0555618,147.869379 L75.477896,147.869379 L75.477896,148.709438 L75.0558001,148.709438 L75.0558001,150.06086 L74.635938,150.06086 L74.635938,156.391132 L76.6005067,156.391132 L76.6005067,150.90092 L76.2473656,150.90092 L76.2473656,149.549498 L75.7585487,149.549498 L75.7585487,148.709438 L76.2487943,148.709438 C76.2800214,148.236323 76.4908098,147.958289 76.8811594,147.875336 L76.8811594,146.18926 L77.4424648,146.18926 L77.4424648,147.877525 C77.9938697,147.986178 78.136226,148.380502 78.1427413,148.709438 L78.5650755,148.709438 L78.5650755,149.549498 L78.1429796,149.549498 L78.1429796,150.90092 L77.7231175,150.90092 L77.7231175,156.391132 L80.9132886,156.391132 L80.9132886,149.893764 L80.337046,149.893764 L80.337046,148.992529 L79.1389018,148.992529 L79.1389018,147.680316 L80.9132886,147.680316 L80.9132886,146.470575 C81.301541,146.466013 81.5925799,146.466013 81.7864053,146.470575 C81.4175234,143.027398 83.7185653,139.570537 88.6895309,136.099991 L88.6895309,135.515177 L89.0278284,135.515177 L89.0278284,131.628233 L89.5891338,131.628233 L89.5891338,135.515177 L89.9234263,135.515177 C89.9213377,135.763707 89.9213377,135.958645 89.9234263,136.099991 C95.9057927,139.817711 98.1311388,143.555588 96.6265805,147.680316 C96.8924827,147.680316 97.2554694,147.680316 97.7155406,147.680316 L97.7155406,148.992529 L97.1598879,148.992529 L97.1598879,156.391132 L98.4991797,156.391132 L98.5084112,135.978882 C93.5783692,123.755906 98.1915665,113.552998 112.348003,105.370157 C110.675675,104.077841 111.806721,103.173175 114.334061,102.730092 C115.656299,102.323039 121.141846,98.7611851 121.707369,98.3404524 C121.71804,97.9105931 121.71804,97.3627735 121.707369,96.6969937 L123.469504,95.3718927 L123.469504,87.3076923 L124.592115,87.3076923 L124.592115,95.450718 L126.463888,96.6969937 L126.463888,98.3404524 C130.683011,100.936505 133.116535,102.399719 133.764458,102.730092 C135.28906,103.687454 137.44047,103.53892 136.024491,105.370157 C143.031666,109.519759 156.431708,119.509003 150.690085,135.978882 C150.688262,140.699442 150.688262,147.503525 150.690085,156.391132 L151.822293,156.391132 L151.822293,148.992529 L151.266641,148.992529 L151.266641,147.680316 C151.726712,147.680316 152.089699,147.680316 152.355601,147.680316 C150.851043,143.555588 153.076389,139.817711 159.058755,136.099991 C159.060844,135.958645 159.060844,135.763707 159.058755,135.515177 L159.393048,135.515177 L159.393048,131.628233 L159.954353,131.628233 L159.954353,135.515177 L160.29265,135.515177 L160.29265,136.099991 C165.263616,139.570537 167.564658,143.027398 167.195776,146.470575 C167.389601,146.466013 167.68064,146.466013 168.068893,146.470575 L168.068893,147.680316 L169.84328,147.680316 L169.84328,148.992529 L168.645135,148.992529 L168.645135,149.893764 L168.068893,149.893764 L168.068893,156.391132 L171.18046,156.391132 L171.18046,151.180939 L170.827319,151.180939 L170.827319,149.829517 L170.338502,149.829517 L170.338502,148.989458 L170.828748,148.989458 C170.859975,148.516343 171.070763,148.238309 171.461113,148.155355 L171.461113,146.46928 L172.022418,146.46928 L172.022418,148.157544 C172.573823,148.266197 172.716179,148.660522 172.722695,148.989458 L173.145029,148.989458 L173.145029,149.829517 L172.722933,149.829517 L172.722933,151.180939 L172.303071,151.180939 L172.303071,156.391132 L174.548292,156.391132 L174.548292,150.34088 L174.195151,150.34088 L174.195151,148.989458 L173.706334,148.989458 L173.706334,148.149399 L174.19658,148.149399 C174.227807,147.676284 174.438595,147.39825 174.828945,147.315296 L174.828945,145.629221 L175.39025,145.629221 L175.39025,147.317485 C175.941655,147.426138 176.084012,147.820462 176.090527,148.149399 L176.512861,148.149399 L176.512861,148.989458 L176.090765,148.989458 L176.090765,150.34088 L175.670903,150.34088 L175.670903,153.15082 L177.955268,151.144452 L180.722651,151.144452 L180.722651,145.020504 L180.36951,145.020504 L180.36951,143.669083 L179.880693,143.669083 L179.880693,142.829023 L180.370939,142.829023 C180.402166,142.355908 180.612954,142.077874 181.003304,141.99492 L181.003304,140.308845 L181.564609,140.308845 L181.564609,141.997109 C182.116014,142.105762 182.258371,142.500087 182.264886,142.829023 L182.68722,142.829023 L182.68722,143.669083 L182.265124,143.669083 L182.265124,145.020504 L181.845262,145.020504 L181.845262,149.829517 L182.054855,149.829517 C182.086082,149.356402 182.29687,149.078368 182.68722,148.995415 L182.68722,147.309339 L183.248525,147.309339 L183.248525,148.997604 C183.79993,149.106257 183.942287,149.500581 183.948802,149.829517 L184.371136,149.829517 L184.371136,150.669577 L183.94904,150.669577 L183.94904,152.020999 L183.529178,152.020999 L183.529178,157.147668 L183.650388,157.147668 L183.650388,197.701595 L202.757815,197.701595 L203.059241,184.768119 L201.771602,183.835205 L201.771602,182.454157 L203.059241,182.454157 L203.518977,168.408579 L202.335906,167.576329 L202.335906,166.272402 L203.518977,166.272402 L204.040265,150.091925 L203.311159,150.091925 L203.311159,149.645174 L202.731447,149.645174 L202.731447,148.32921 L203.311159,148.32921 L203.311159,147.862221 L203.888338,147.862221 L203.888338,144.413032 L202.910932,143.362082 L204.132392,142.637114 C204.068453,141.053436 204.790342,140.025523 206.298058,139.553376 C206.295441,139.286127 206.295441,139.043921 206.298058,138.826757 L206.731337,138.826757 Z M67.0652781,152.301018 L66.7776629,152.301018 L66.7776629,157.082974 L67.0652781,157.082974 L67.0652781,152.301018 Z M181.845262,151.144452 L181.922065,151.144452 L181.922065,157.147668 L182.406567,157.147668 L182.406567,152.020999 L182.053426,152.020999 L182.053426,150.669577 L181.845262,150.669577 L181.845262,151.144452 Z M157.989784,155.989952 L162.199574,155.989952 C162.199574,153.92651 162.199574,152.66327 162.199574,152.200231 C162.199574,151.505672 160.751547,150.66729 160.034718,150.389557 C159.36078,150.667178 157.989784,151.440574 157.989784,152.200231 C157.989784,152.706668 157.989784,153.969909 157.989784,155.989952 Z M164.164143,155.989952 L166.690017,155.989952 C166.690017,153.92651 166.690017,152.66327 166.690017,152.200231 C166.690017,151.505672 165.821201,150.66729 165.391104,150.389557 C164.986741,150.667178 164.164143,151.440574 164.164143,152.200231 C164.164143,152.706668 164.164143,153.969909 164.164143,155.989952 Z M153.218689,155.989952 L155.744563,155.989952 C155.744563,153.92651 155.744563,152.66327 155.744563,152.200231 C155.744563,151.505672 154.875747,150.66729 154.445649,150.389557 C154.041286,150.667178 153.218689,151.440574 153.218689,152.200231 C153.218689,152.706668 153.218689,153.969909 153.218689,155.989952 Z M90.9923972,155.989952 C90.9923972,153.969909 90.9923972,152.706668 90.9923972,152.200231 C90.9923972,151.440574 89.621401,150.667178 88.9474629,150.389557 C88.2306339,150.66729 86.782607,151.505672 86.782607,152.200231 C86.782607,152.66327 86.782607,153.92651 86.782607,155.989952 L90.9923972,155.989952 Z M84.8180382,155.989952 C84.8180382,153.969909 84.8180382,152.706668 84.8180382,152.200231 C84.8180382,151.440574 83.9954405,150.667178 83.5910776,150.389557 C83.1609802,150.66729 82.2921641,151.505672 82.2921641,152.200231 C82.2921641,152.66327 82.2921641,153.92651 82.2921641,155.989952 L84.8180382,155.989952 Z M95.7634927,155.989952 C95.7634927,153.969909 95.7634927,152.706668 95.7634927,152.200231 C95.7634927,151.440574 94.940895,150.667178 94.5365322,150.389557 C94.1064348,150.66729 93.2376186,151.505672 93.2376186,152.200231 C93.2376186,152.66327 93.2376186,153.92651 93.2376186,155.989952 L95.7634927,155.989952 Z M17.3802595,121.547521 C16.7616569,121.547521 16.2601804,122.048997 16.2601804,122.6676 L16.2601804,126.587877 L18.5054018,126.587877 L18.5054018,122.6676 C18.5054018,122.048997 18.0039254,121.547521 17.3853228,121.547521 L17.3802595,121.547521 Z M20.1867863,121.547521 C19.5681837,121.547521 19.0667072,122.048997 19.0667072,122.6676 L19.0667072,126.587877 L21.3119287,126.587877 L21.3119287,122.6676 C21.3119287,122.048997 20.8104522,121.547521 20.1918496,121.547521 L20.1867863,121.547521 Z M14.5737327,121.547521 C13.9551301,121.547521 13.4536536,122.048997 13.4536536,122.6676 L13.4536536,126.587877 L15.698875,126.587877 L15.698875,122.6676 C15.698875,122.048997 15.1973986,121.547521 14.578796,121.547521 L14.5737327,121.547521 Z M41.5341509,144.521585 C41.1011291,144.521585 40.7500955,144.872619 40.7500955,145.305641 L40.7500955,148.055434 L42.3347335,148.055434 L42.3347335,145.305641 C42.3347335,144.872619 41.9836999,144.521585 41.5506781,144.521585 L41.5341509,144.521585 Z M43.5149484,144.521585 C43.0819266,144.521585 42.730893,144.872619 42.730893,145.305641 L42.730893,148.055434 L44.315531,148.055434 L44.315531,145.305641 C44.315531,144.872619 43.9644974,144.521585 43.5314756,144.521585 L43.5149484,144.521585 Z M39.5533534,144.521585 C39.1203316,144.521585 38.769298,144.872619 38.769298,145.305641 L38.769298,148.055434 L40.353936,148.055434 L40.353936,145.305641 C40.353936,144.872619 40.0029024,144.521585 39.5698806,144.521585 L39.5533534,144.521585 Z M232.921518,121.547521 C232.302916,121.547521 231.801439,122.048997 231.801439,122.6676 L231.801439,126.587877 L234.046661,126.587877 L234.046661,122.6676 C234.046661,122.048997 233.545184,121.547521 232.926582,121.547521 L232.921518,121.547521 Z M235.728045,121.547521 C235.109442,121.547521 234.607966,122.048997 234.607966,122.6676 L234.607966,126.587877 L236.853187,126.587877 L236.853187,122.6676 C236.853187,122.048997 236.351711,121.547521 235.733108,121.547521 L235.728045,121.547521 Z M230.114991,121.547521 C229.496389,121.547521 228.994912,122.048997 228.994912,122.6676 L228.994912,126.587877 L231.240134,126.587877 L231.240134,122.6676 C231.240134,122.048997 230.738657,121.547521 230.120055,121.547521 L230.114991,121.547521 Z M207.119232,144.521585 C206.686211,144.521585 206.335177,144.872619 206.335177,145.305641 L206.335177,148.055434 L207.919815,148.055434 L207.919815,145.305641 C207.919815,144.872619 207.568782,144.521585 207.13576,144.521585 L207.119232,144.521585 Z M209.10003,144.521585 C208.667008,144.521585 208.315975,144.872619 208.315975,145.305641 L208.315975,148.055434 L209.900613,148.055434 L209.900613,145.305641 C209.900613,144.872619 209.549579,144.521585 209.116557,144.521585 L209.10003,144.521585 Z M205.138435,144.521585 C204.705413,144.521585 204.35438,144.872619 204.35438,145.305641 L204.35438,148.055434 L205.939018,148.055434 L205.939018,145.305641 C205.939018,144.872619 205.587984,144.521585 205.154962,144.521585 L205.138435,144.521585 Z" id="Combined-Shape" fill="#CC4F56" fill-rule="nonzero" mask="url(#mask-2)"></path>
                <path d="M138.106245,177.10424 C137.418661,173.57097 129.525917,169.497983 125.52982,168.107758 C121.599708,169.561453 113.604658,173.611157 113.604658,177.588914 L113.604658,197.248422 L111.920742,197.248422 C111.920742,185.22245 111.920742,177.701972 111.920742,174.686986 C111.920742,170.164507 120.448536,165.560228 124.640528,163.907462 C129.099308,165.560899 138.106245,170.552052 138.106245,174.686986 L138.106245,177.10424 Z" id="Combined-Shape" fill="#FFFFFF" fill-rule="nonzero" mask="url(#mask-2)"></path>
                <path d="M121.876457,183.15187 C121.876457,179.717795 121.876457,177.570286 121.876457,176.709343 C121.876457,175.417927 124.34425,174.103153 125.557339,173.631197 C126.847631,174.103344 129.454079,175.528592 129.454079,176.709343 C129.454079,177.496509 129.454079,179.644018 129.454079,183.15187 L121.876457,183.15187 Z" id="Path-5-Copy-10" fill="#FFFFFF" fill-rule="nonzero" mask="url(#mask-2)"></path>
                <path d="M121.876457,197.432878 C121.876457,193.998803 121.876457,191.851294 121.876457,190.990351 C121.876457,189.698935 124.34425,188.384161 125.557339,187.912206 C126.847631,188.384352 129.454079,189.8096 129.454079,190.990351 C129.454079,191.777517 129.454079,193.925026 129.454079,197.432878 L121.876457,197.432878 Z" id="Path-5-Copy-11" fill="#FFFFFF" fill-rule="nonzero" mask="url(#mask-2)"></path>
                <rect id="Rectangle-3" fill="#FFFFFF" fill-rule="nonzero" mask="url(#mask-2)" x="156.677389" y="171.11102" width="5.33240093" height="7.00049415"></rect>
                <rect id="Rectangle-3-Copy" fill="#FFFFFF" fill-rule="nonzero" mask="url(#mask-2)" x="156.677389" y="190.432383" width="5.33240093" height="7.00049415"></rect>
                <rect id="Rectangle-3-Copy-2" fill="#FFFFFF" fill-rule="nonzero" mask="url(#mask-2)" x="87.0755245" y="190.432383" width="5.33240093" height="7.00049415"></rect>
                <rect id="Rectangle-3-Copy-3" fill="#FFFFFF" fill-rule="nonzero" mask="url(#mask-2)" x="87.0755245" y="171.11102" width="5.33240093" height="7.00049415"></rect>
                <path d="M165.377622,188.337545 C165.377622,186.670604 161.516217,184.658489 159.604673,183.991929 C157.807505,184.658219 154.151515,186.514371 154.151515,188.337545 L154.151515,197.152858 L153.309557,197.152858 C153.309557,191.597738 153.309557,188.123826 153.309557,186.731123 C153.309557,184.642068 157.239746,182.515228 159.171702,181.751771 C161.226612,182.515538 165.377622,184.821086 165.377622,186.731123 L165.377622,188.337545 Z" id="Combined-Shape" fill="#FFFFFF" fill-rule="nonzero" mask="url(#mask-2)"></path>
                <path d="M165.09697,169.016182 C165.09697,167.34924 161.3321,165.337125 159.468344,164.670565 C157.716105,165.336855 154.151515,167.193007 154.151515,169.016182 L154.151515,177.831494 L153.309557,177.831494 C153.309557,172.276374 153.309557,168.802462 153.309557,167.409759 C153.309557,165.320705 157.148346,163.193864 159.035373,162.430407 C161.042494,163.194174 165.09697,165.499722 165.09697,167.409759 L165.09697,169.016182 Z" id="Combined-Shape" fill="#FFFFFF" fill-rule="nonzero" mask="url(#mask-2)"></path>
                <path d="M180.252214,169.016182 C180.252214,167.34924 177.935371,165.337125 176.788445,164.670565 C175.710144,165.336855 173.51655,167.193007 173.51655,169.016182 L173.51655,177.831494 L172.955245,177.831494 C172.955245,172.276374 172.955245,168.802462 172.955245,167.409759 C172.955245,165.320705 175.331638,163.193864 176.499798,162.430407 C177.742301,163.194174 180.252214,165.499722 180.252214,167.409759 L180.252214,169.016182 Z" id="Combined-Shape" fill="#FFFFFF" fill-rule="nonzero" mask="url(#mask-2)"></path>
                <path d="M180.532867,188.238593 C180.532867,186.502196 178.216024,184.406243 177.069098,183.711909 C175.990797,184.405961 173.797203,186.339452 173.797203,188.238593 L173.797203,197.432878 L173.235897,197.432878 C173.235897,191.877758 173.235897,188.403846 173.235897,187.011143 C173.235897,184.922088 175.612291,182.795248 176.78045,182.03179 C178.022954,182.795558 180.532867,185.101106 180.532867,187.011143 L180.532867,188.238593 Z" id="Combined-Shape" fill="#FFFFFF" fill-rule="nonzero" mask="url(#mask-2)"></path>
                <path d="M95.2144522,188.148059 C95.2144522,186.44639 91.4495821,184.392356 89.5858268,183.711909 C87.8335878,184.39208 84.2689977,186.286902 84.2689977,188.148059 L84.2689977,197.152858 L83.1463869,197.152858 C83.1463869,191.597738 83.1463869,188.123826 83.1463869,186.731123 C83.1463869,184.642068 87.076576,182.515228 89.0085319,181.751771 C91.0634416,182.515538 95.2144522,184.821086 95.2144522,186.731123 L95.2144522,188.148059 Z" id="Combined-Shape" fill="#FFFFFF" fill-rule="nonzero" mask="url(#mask-2)"></path>
                <path d="M95.2144522,169.016182 C95.2144522,167.34924 91.353047,165.337125 89.4415031,164.670565 C87.6443348,165.336855 83.988345,167.193007 83.988345,169.016182 L83.988345,177.831494 L83.1463869,177.831494 C83.1463869,172.276374 83.1463869,168.802462 83.1463869,167.409759 C83.1463869,165.320705 87.076576,163.193864 89.0085319,162.430407 C91.0634416,163.194174 95.2144522,165.499722 95.2144522,167.409759 L95.2144522,169.016182 Z" id="Combined-Shape" fill="#FFFFFF" fill-rule="nonzero" mask="url(#mask-2)"></path>
                <path d="M75.5687646,167.946219 C74.8980063,166.570278 73.1874913,165.198455 72.241324,164.670565 C71.1180939,165.336855 68.8331002,167.193007 68.8331002,169.016182 L68.8331002,177.831494 L68.2717949,177.831494 C68.2717949,172.276374 68.2717949,168.802462 68.2717949,167.409759 C68.2717949,165.320705 70.6481883,163.193864 71.8163476,162.430407 C73.0588512,163.194174 75.5687646,165.499722 75.5687646,167.409759 L75.5687646,167.946219 Z" id="Combined-Shape" fill="#FFFFFF" fill-rule="nonzero" mask="url(#mask-2)"></path>
                <path d="M75.5687646,187.099282 C74.9171701,185.674344 73.2887364,184.258627 72.3856478,183.711909 C71.3073468,184.405961 69.1137529,186.339452 69.1137529,188.238593 L69.1137529,197.432878 L68.2717949,197.432878 C68.2717949,191.877758 68.2717949,188.403846 68.2717949,187.011143 C68.2717949,184.922088 70.6481883,182.795248 71.8163476,182.03179 C73.0588512,182.795558 75.5687646,185.101106 75.5687646,187.011143 L75.5687646,187.099282 Z" id="Combined-Shape" fill="#FFFFFF" fill-rule="nonzero" mask="url(#mask-2)"></path>
            </g>
            <path d="M125.192308,241.076923 C189.406031,241.076923 241.461538,189.021415 241.461538,124.807692 C241.461538,60.5939693 189.406031,8.53846154 125.192308,8.53846154 C60.9785847,8.53846154 8.92307692,60.5939693 8.92307692,124.807692 C8.92307692,189.021415 60.9785847,241.076923 125.192308,241.076923 Z M125.192308,243.076923 C59.8740152,243.076923 6.92307692,190.125985 6.92307692,124.807692 C6.92307692,59.4893998 59.8740152,6.53846154 125.192308,6.53846154 C190.5106,6.53846154 243.461538,59.4893998 243.461538,124.807692 C243.461538,190.125985 190.5106,243.076923 125.192308,243.076923 Z" id="Path" fill="#C8575D" fill-rule="nonzero"></path>
            <g id="Group-5-Copy" transform="translate(125.769231, 32.692308)" stroke="#C8575D">
                <path d="M18.6976252,13.9248694 L18.6975523,13.9251202 C17.5879014,17.7437234 13.5954551,19.9399499 9.77825526,18.8311321 C5.96134249,17.7223977 3.76597262,13.7270797 4.87428734,9.90782889 C5.93943168,6.24341196 10.0788323,3.92297914 13.7935635,5.00320245 C17.6103391,6.11189702 19.8059361,10.1071567 18.6976252,13.9248694 Z M22.8200533,11.2814719 L20.8685838,11.3072102 L20.72903,10.4581325 C20.4970739,9.04685756 19.9330645,7.70727228 19.0884346,6.55455528 L18.5895051,5.8736363 L19.8676871,4.55498271 L19.1607901,3.86897012 L17.9003683,5.16938589 L17.1960456,4.64433628 C16.338088,4.00475691 15.3665415,3.52008505 14.3118904,3.21344259 C13.9667941,3.11264307 13.615199,3.03508993 13.2589517,2.98080019 L12.4096058,2.85136549 L12.4096058,1 L11.4247346,1 L11.4247346,2.86248643 L10.5821749,2.99681452 C9.14025187,3.22669825 7.73995302,3.80840956 6.52569669,4.67496018 L5.83757343,5.16603742 L4.53244524,3.86510751 L3.83698665,4.56351194 L5.11579831,5.83800794 L4.56651398,6.53682681 C3.8861904,7.40235843 3.38308665,8.3671928 3.08671213,9.38777809 C2.9687533,9.79375759 2.87993915,10.2028014 2.82075917,10.6113456 L2.69720843,11.4642683 L1.00438606,11.4715529 L1.00872151,12.4579228 L2.70075529,12.4506416 L2.83244455,13.3013612 C3.06418995,14.7984488 3.6698649,16.2161277 4.58856387,17.4206598 L5.1155075,18.1115504 L3.9018255,19.3404786 L4.60278913,20.0322598 L5.82365641,18.7938225 L6.51838942,19.2920459 C7.33940626,19.8808328 8.26190056,20.3300939 9.25930059,20.6207088 C9.71132008,20.7524189 10.1719107,20.8480159 10.6389148,20.9080719 L11.5036842,21.0192798 L11.5196251,22.8374368 L12.5040151,22.8288176 L12.4871541,20.9949067 L13.3246153,20.850164 C14.775536,20.5993941 16.1473533,19.9953004 17.316181,19.0955737 L18.0047486,18.5655361 L19.3717073,19.9036815 L20.0602385,19.1996894 L18.685909,17.8551803 L19.1788253,17.1590138 C19.7571039,16.3422867 20.1987474,15.4293625 20.4848292,14.4461996 C20.6102365,14.012975 20.7026111,13.5787176 20.7617375,13.1456976 L20.8782482,12.2924166 L22.8330499,12.2666666 L22.8200533,11.2814719 Z" id="Fill-1" stroke-width="2"></path>
                <path d="M13.0835255,7.5400856 C10.6793207,6.84010929 8.03371803,8.3859311 7.3652318,10.6885105 C6.65472086,13.1398961 8.06206028,15.7048442 10.5092672,16.4165684 C12.9564741,17.1282926 15.5160726,15.7185501 16.2275609,13.2671645 C16.9380718,10.8167579 15.5307324,8.25180976 13.0835255,7.5400856 Z" id="Path" stroke-width="0.769230769" fill-rule="nonzero"></path>
            </g>
            <path d="M70.1192308,53.9230769 L70.1192308,35.0769231 L77.4692308,35.0769231 C83.3923077,35.0769231 87.4846154,39.1423077 87.4846154,44.4461538 L87.4846154,44.5 C87.4846154,49.8038462 83.3923077,53.9230769 77.4692308,53.9230769 L70.1192308,53.9230769 Z M77.4692308,38.8192308 L74.2653846,38.8192308 L74.2653846,50.1807692 L77.4692308,50.1807692 C80.8615385,50.1807692 83.15,47.8923077 83.15,44.5538462 L83.15,44.5 C83.15,41.1615385 80.8615385,38.8192308 77.4692308,38.8192308 Z M90.4038462,53.9230769 L90.4038462,35.0769231 L104.619231,35.0769231 L104.619231,38.7653846 L94.5230769,38.7653846 L94.5230769,42.5884615 L103.407692,42.5884615 L103.407692,46.2769231 L94.5230769,46.2769231 L94.5230769,50.2346154 L104.753846,50.2346154 L104.753846,53.9230769 L90.4038462,53.9230769 Z M113.676923,54.0576923 L106.057692,35.0769231 L110.634615,35.0769231 L115.561538,48.35 L120.488462,35.0769231 L124.957692,35.0769231 L117.338462,54.0576923 L113.676923,54.0576923 Z" id="DEV-Copy" fill="#002B4D"></path>
            <path d="M102.184124,227.692308 L102.184124,214.230769 L103.703355,214.230769 L103.703355,227.692308 L102.184124,227.692308 Z M106.418167,227.692308 L106.418167,214.230769 L107.841244,214.230769 L116.322013,225.019231 L116.322013,214.230769 L117.802782,214.230769 L117.802782,227.692308 L116.591244,227.692308 L107.898936,216.653846 L107.898936,227.692308 L106.418167,227.692308 Z M120.382979,227.692308 L120.382979,214.230769 L125.056056,214.230769 C129.286825,214.230769 132.209902,217.134615 132.209902,220.923077 L132.209902,220.961538 C132.209902,224.75 129.286825,227.692308 125.056056,227.692308 L120.382979,227.692308 Z M125.056056,215.634615 L121.902209,215.634615 L121.902209,226.288462 L125.056056,226.288462 C128.459902,226.288462 130.632979,223.980769 130.632979,221 L130.632979,220.961538 C130.632979,217.980769 128.459902,215.634615 125.056056,215.634615 Z M134.32856,227.692308 L134.32856,214.230769 L135.847791,214.230769 L135.847791,227.692308 L134.32856,227.692308 Z M137.408756,227.692308 L143.543372,214.134615 L144.966449,214.134615 L151.101064,227.692308 L149.466449,227.692308 L147.889526,224.134615 L140.562603,224.134615 L138.966449,227.692308 L137.408756,227.692308 Z M141.158756,222.75 L147.293372,222.75 L144.235679,215.903846 L141.158756,222.75 Z" id="INDIA" fill="#FFFFFF"></path>
            <path d="M92.0096161,81.6153846 L92.0096161,62.7692308 L99.3596161,62.7692308 C105.282693,62.7692308 109.375001,66.8346154 109.375001,72.1384615 L109.375001,72.1923077 C109.375001,77.4961538 105.282693,81.6153846 99.3596161,81.6153846 L92.0096161,81.6153846 Z M99.3596161,66.5115385 L96.15577,66.5115385 L96.15577,77.8730769 L99.3596161,77.8730769 C102.751924,77.8730769 105.040385,75.5846154 105.040385,72.2461538 L105.040385,72.1923077 C105.040385,68.8538462 102.751924,66.5115385 99.3596161,66.5115385 Z M109.332693,81.6153846 L117.409616,62.6346154 L121.232693,62.6346154 L129.309616,81.6153846 L124.975,81.6153846 L123.251923,77.3884615 L115.282693,77.3884615 L113.559616,81.6153846 L109.332693,81.6153846 Z M116.763462,73.7269231 L121.771154,73.7269231 L119.267308,67.6153846 L116.763462,73.7269231 Z M133.790385,81.6153846 L133.790385,74.1846154 L126.548077,62.7692308 L131.394231,62.7692308 L135.890385,70.3346154 L140.467308,62.7692308 L145.178846,62.7692308 L137.936538,74.1038462 L137.936538,81.6153846 L133.790385,81.6153846 Z M152.755769,81.8846154 C149.901923,81.8846154 147.021153,80.8884615 144.759615,78.8692308 L147.209615,75.9346154 C148.905769,77.3346154 150.682692,78.2230769 152.836538,78.2230769 C154.532692,78.2230769 155.555769,77.55 155.555769,76.4461538 L155.555769,76.3923077 C155.555769,75.3423077 154.909615,74.8038462 151.759615,73.9961538 C147.963461,73.0269231 145.513461,71.9769231 145.513461,68.2346154 L145.513461,68.1807692 C145.513461,64.7615385 148.259615,62.5 152.109615,62.5 C154.855769,62.5 157.198077,63.3615385 159.109615,64.8961538 L156.955769,68.0192308 C155.286538,66.8615385 153.64423,66.1615385 152.055769,66.1615385 C150.467307,66.1615385 149.632692,66.8884615 149.632692,67.8038462 L149.632692,67.8576923 C149.632692,69.0961538 150.440384,69.5 153.698077,70.3346154 C157.521153,71.3307692 159.675,72.7038462 159.675,75.9884615 L159.675,76.0423077 C159.675,79.7846154 156.821153,81.8846154 152.755769,81.8846154 Z" id="DAYS-Copy" fill="#002B4D"></path>
            <path d="M152.538462,54.3076923 L152.538462,35.4615385 L160.238462,35.4615385 C164.734615,35.4615385 167.453846,38.1269231 167.453846,41.9769231 L167.453846,42.0307692 C167.453846,46.3923077 164.061538,48.6538462 159.834615,48.6538462 L156.684615,48.6538462 L156.684615,54.3076923 L152.538462,54.3076923 Z M156.684615,44.9653846 L159.969231,44.9653846 C162.042308,44.9653846 163.253846,43.7269231 163.253846,42.1115385 L163.253846,42.0576923 C163.253846,40.2 161.961538,39.2038462 159.888462,39.2038462 L156.684615,39.2038462 L156.684615,44.9653846 Z M176.457692,54.5769231 C173.603846,54.5769231 170.723077,53.5807692 168.461538,51.5615385 L170.911538,48.6269231 C172.607692,50.0269231 174.384615,50.9153846 176.538462,50.9153846 C178.234615,50.9153846 179.257692,50.2423077 179.257692,49.1384615 L179.257692,49.0846154 C179.257692,48.0346154 178.611538,47.4961538 175.461538,46.6884615 C171.665385,45.7192308 169.215385,44.6692308 169.215385,40.9269231 L169.215385,40.8730769 C169.215385,37.4538462 171.961538,35.1923077 175.811538,35.1923077 C178.557692,35.1923077 180.9,36.0538462 182.811538,37.5884615 L180.657692,40.7115385 C178.988462,39.5538462 177.346154,38.8538462 175.757692,38.8538462 C174.169231,38.8538462 173.334615,39.5807692 173.334615,40.4961538 L173.334615,40.55 C173.334615,41.7884615 174.142308,42.1923077 177.4,43.0269231 C181.223077,44.0230769 183.376923,45.3961538 183.376923,48.6807692 L183.376923,48.7346154 C183.376923,52.4769231 180.523077,54.5769231 176.457692,54.5769231 Z" id="PS-Copy" fill="#002B4D"></path>
        </g>
    </g>
</svg>